<svg width="1200" height="630" viewBox="0 0 1200 630" fill="none" xmlns="http://www.w3.org/2000/svg">
  <!-- Background Gradient -->
  <defs>
    <linearGradient id="bgGradient" x1="0%" y1="0%" x2="100%" y2="100%">
      <stop offset="0%" style="stop-color:#f8fafc;stop-opacity:1" />
      <stop offset="100%" style="stop-color:#e2e8f0;stop-opacity:1" />
    </linearGradient>
    <linearGradient id="logoGradient" x1="0%" y1="0%" x2="100%" y2="100%">
      <stop offset="0%" style="stop-color:#2563eb;stop-opacity:1" />
      <stop offset="100%" style="stop-color:#7c3aed;stop-opacity:1" />
    </linearGradient>
    <linearGradient id="cardGradient" x1="0%" y1="0%" x2="100%" y2="100%">
      <stop offset="0%" style="stop-color:#ffffff;stop-opacity:1" />
      <stop offset="100%" style="stop-color:#f8fafc;stop-opacity:1" />
    </linearGradient>
  </defs>
  
  <!-- Background -->
  <rect width="1200" height="630" fill="url(#bgGradient)"/>
  
  <!-- Decorative Elements -->
  <circle cx="100" cy="100" r="60" fill="#2563eb" opacity="0.1"/>
  <circle cx="1100" cy="530" r="80" fill="#7c3aed" opacity="0.1"/>
  <circle cx="1050" cy="150" r="40" fill="#2563eb" opacity="0.15"/>
  
  <!-- Main Content Container -->
  <rect x="100" y="100" width="1000" height="430" rx="20" fill="url(#cardGradient)" stroke="#e2e8f0" stroke-width="2"/>
  
  <!-- Logo -->
  <rect x="150" y="150" width="80" height="80" rx="16" fill="url(#logoGradient)"/>
  <g transform="translate(170, 170)">
    <path d="M28 4H8a4 4 0 0 0-4 4v32a4 4 0 0 0 4 4h24a4 4 0 0 0 4-4V16z" fill="white"/>
    <polyline points="28,4 28,16 40,16" fill="white"/>
    <line x1="32" y1="26" x2="16" y2="26" stroke="#2563eb" stroke-width="2"/>
    <line x1="32" y1="34" x2="16" y2="34" stroke="#2563eb" stroke-width="2"/>
    <polyline points="20,18 18,18 16,18" stroke="#2563eb" stroke-width="2"/>
  </g>
  
  <!-- Main Title -->
  <text x="270" y="200" font-family="system-ui, -apple-system, sans-serif" font-size="48" font-weight="700" fill="#1f2937">ResumeAI</text>
  
  <!-- Subtitle -->
  <text x="270" y="240" font-family="system-ui, -apple-system, sans-serif" font-size="24" font-weight="500" fill="#6b7280">AI-Powered Professional Resume Generator</text>
  
  <!-- Feature List -->
  <g transform="translate(270, 280)">
    <!-- Feature 1 -->
    <circle cx="8" cy="8" r="4" fill="#10b981"/>
    <text x="25" y="13" font-family="system-ui, -apple-system, sans-serif" font-size="18" fill="#374151">Smart AI Content Generation</text>
    
    <!-- Feature 2 -->
    <circle cx="8" cy="38" r="4" fill="#10b981"/>
    <text x="25" y="43" font-family="system-ui, -apple-system, sans-serif" font-size="18" fill="#374151">Professional Templates</text>
    
    <!-- Feature 3 -->
    <circle cx="8" cy="68" r="4" fill="#10b981"/>
    <text x="25" y="73" font-family="system-ui, -apple-system, sans-serif" font-size="18" fill="#374151">Export to PDF & Word</text>
    
    <!-- Feature 4 -->
    <circle cx="8" cy="98" r="4" fill="#10b981"/>
    <text x="25" y="103" font-family="system-ui, -apple-system, sans-serif" font-size="18" fill="#374151">Real-time Preview</text>
  </g>
  
  <!-- Resume Preview Mockup -->
  <g transform="translate(650, 150)">
    <!-- Resume Document -->
    <rect x="0" y="0" width="200" height="280" rx="8" fill="white" stroke="#e5e7eb" stroke-width="2"/>
    
    <!-- Header -->
    <rect x="0" y="0" width="200" height="60" rx="8" fill="url(#logoGradient)"/>
    <rect x="15" y="15" width="80" height="8" rx="4" fill="white" opacity="0.9"/>
    <rect x="15" y="30" width="120" height="6" rx="3" fill="white" opacity="0.7"/>
    <rect x="15" y="42" width="100" height="6" rx="3" fill="white" opacity="0.7"/>
    
    <!-- Content Lines -->
    <rect x="15" y="80" width="170" height="6" rx="3" fill="#e5e7eb"/>
    <rect x="15" y="95" width="150" height="6" rx="3" fill="#e5e7eb"/>
    <rect x="15" y="110" width="160" height="6" rx="3" fill="#e5e7eb"/>
    
    <rect x="15" y="135" width="100" height="8" rx="4" fill="#2563eb"/>
    <rect x="15" y="155" width="170" height="6" rx="3" fill="#e5e7eb"/>
    <rect x="15" y="170" width="140" height="6" rx="3" fill="#e5e7eb"/>
    <rect x="15" y="185" width="155" height="6" rx="3" fill="#e5e7eb"/>
    
    <rect x="15" y="210" width="80" height="8" rx="4" fill="#2563eb"/>
    <rect x="15" y="230" width="120" height="6" rx="3" fill="#e5e7eb"/>
    <rect x="15" y="245" width="100" height="6" rx="3" fill="#e5e7eb"/>
    <rect x="15" y="260" width="130" height="6" rx="3" fill="#e5e7eb"/>
  </g>
  
  <!-- AI Sparkles -->
  <g transform="translate(900, 200)">
    <path d="M12 2l3.09 6.26L22 9.27l-5.91 5.73L17.18 22 12 19.27 6.82 22l1.09-6.91L2 9.27l6.91-1.01L12 2z" fill="#7c3aed" opacity="0.6"/>
  </g>
  <g transform="translate(920, 350)">
    <path d="M12 2l3.09 6.26L22 9.27l-5.91 5.73L17.18 22 12 19.27 6.82 22l1.09-6.91L2 9.27l6.91-1.01L12 2z" fill="#2563eb" opacity="0.4" transform="scale(0.7)"/>
  </g>
  <g transform="translate(880, 320)">
    <path d="M12 2l3.09 6.26L22 9.27l-5.91 5.73L17.18 22 12 19.27 6.82 22l1.09-6.91L2 9.27l6.91-1.01L12 2z" fill="#10b981" opacity="0.5" transform="scale(0.5)"/>
  </g>
  
  <!-- Call to Action -->
  <rect x="270" y="450" width="200" height="50" rx="25" fill="url(#logoGradient)"/>
  <text x="370" y="480" font-family="system-ui, -apple-system, sans-serif" font-size="18" font-weight="600" fill="white" text-anchor="middle">Create Your Resume</text>
</svg>